<svg width="28" height="28" viewBox="0 0 28 28" fill="none" xmlns="http://www.w3.org/2000/svg">
<path d="M14 13V8.5C14 5.46243 16.4624 3 19.5 3V3C22.5376 3 25 5.46243 25 8.5V8.5C25 11.5376 22.5376 14 19.5 14H14" stroke="#278941" stroke-width="6"/>
<path d="M14 13V19.5C14 22.5376 16.4624 25 19.5 25V25C22.5376 25 25 22.5376 25 19.5V19.5C25 16.4624 22.5376 14 19.5 14H14" stroke="#278941" stroke-width="6"/>
<path d="M14 15V8.5C14 5.46243 11.5376 3 8.5 3V3C5.46243 3 3 5.46243 3 8.5V8.5C3 11.5376 5.46243 14 8.5 14H14" stroke="#41CE67" stroke-width="6"/>
<path d="M14 15V19.5C14 22.5376 11.5376 25 8.5 25V25C5.46243 25 3 22.5376 3 19.5V19.5C3 16.4624 5.46243 14 8.5 14H14" stroke="#41CE67" stroke-width="6"/>
</svg>
