<svg width="25" height="32" viewBox="0 0 25 32" fill="none" xmlns="http://www.w3.org/2000/svg">
<path d="M8 13V6.5C8 4.01472 10.0147 2 12.5 2V2C14.9853 2 17 4.01472 17 6.5V13" stroke="#278941" stroke-width="3" stroke-linecap="round"/>
<mask id="path-2-inside-1_124_36" fill="white">
<path d="M0 10C0 8.89543 0.89543 8 2 8H23C24.1046 8 25 8.89543 25 10V26C25 28.7614 22.7614 31 20 31H5C2.23858 31 0 28.7614 0 26V10Z"/>
</mask>
<path d="M0 10C0 8.89543 0.89543 8 2 8H23C24.1046 8 25 8.89543 25 10V26C25 28.7614 22.7614 31 20 31H5C2.23858 31 0 28.7614 0 26V10Z" stroke="#41CE67" stroke-width="6" mask="url(#path-2-inside-1_124_36)"/>
</svg>
